<?xml version="1.0" encoding="utf-8"?>
<!-- Generator: Adobe Illustrator 23.1.0, SVG Export Plug-In . SVG Version: 6.00 Build 0)  -->
<svg version="1.1" id="Layer_1" xmlns="http://www.w3.org/2000/svg" xmlns:xlink="http://www.w3.org/1999/xlink" x="0px" y="0px"
	 viewBox="0 0 1000 1000" style="enable-background:new 0 0 1000 1000;" xml:space="preserve">
<style type="text/css">
	.st0{fill:#FFDA9F;}
	.st1{fill:none;stroke:#FFDA9F;stroke-width:3;stroke-miterlimit:10;}
	.st2{fill:#FFFFFF;}
	.st3{fill:none;stroke:#FFFFFF;stroke-width:8;stroke-miterlimit:10;}
	.st4{fill:#FFFFFF;stroke:#FFFFFF;stroke-width:4;stroke-miterlimit:10;}
	.st5{fill:none;stroke:#FFFFFF;stroke-width:5;stroke-miterlimit:10;}
</style>
<g>
	<g>
		<g>
			<path class="st0" d="M295.08,441.29c-71.17,0-128.86,55.67-128.86,124.35s57.69,124.35,128.86,124.35s128.86-55.67,128.86-124.35
				S366.24,441.29,295.08,441.29z M295.08,676.82c-63.63,0-115.21-49.78-115.21-111.18s51.58-111.18,115.21-111.18
				s115.21,49.78,115.21,111.18S358.71,676.82,295.08,676.82z"/>
		</g>
		<line class="st1" x1="214.5" y1="645.1" x2="375.65" y2="486.17"/>
		<line class="st1" x1="375.65" y1="645.1" x2="214.5" y2="486.17"/>
		<line class="st1" x1="179.93" y1="537.07" x2="409.93" y2="594.07"/>
		<line class="st1" x1="181.23" y1="598.45" x2="408.92" y2="532.82"/>
		<g>
			<line class="st1" x1="266.49" y1="674.88" x2="323.55" y2="455.86"/>
			<line class="st1" x1="262.18" y1="451.37" x2="327.82" y2="679.05"/>
		</g>
	</g>
	<g>
		<g>
			<path class="st0" d="M704.94,440.9c-71.17,0-128.86,55.67-128.86,124.35s57.69,124.35,128.86,124.35S833.8,633.92,833.8,565.24
				S776.11,440.9,704.94,440.9z M704.94,676.43c-63.63,0-115.21-49.78-115.21-111.18s51.58-111.18,115.21-111.18
				s115.21,49.78,115.21,111.18S768.58,676.43,704.94,676.43z"/>
		</g>
		<line class="st1" x1="624.37" y1="644.71" x2="785.52" y2="485.78"/>
		<line class="st1" x1="785.52" y1="644.71" x2="624.37" y2="485.78"/>
		<line class="st1" x1="589.8" y1="536.68" x2="819.8" y2="593.68"/>
		<line class="st1" x1="591.1" y1="598.06" x2="818.79" y2="532.42"/>
		<g>
			<line class="st1" x1="676.35" y1="674.49" x2="733.41" y2="455.47"/>
			<line class="st1" x1="672.05" y1="450.98" x2="737.69" y2="678.66"/>
		</g>
	</g>
	<circle class="st2" cx="295.08" cy="565.63" r="13"/>
	<line class="st3" x1="294.93" y1="566.07" x2="387.93" y2="343.07"/>
	<g>
		<path class="st2" d="M336.53,285.06c2.4,8.35,5.26,15.96,9.16,22.79c1.96,3.4,4.19,6.55,6.58,9.53c0.63,0.72,1.29,1.42,1.9,2.15
			c0.57,0.77,1.34,1.36,1.96,2.09c1.26,1.45,2.71,2.7,4.06,4.12c2.79,2.7,5.78,5.38,9.15,7.67c3.35,2.31,7.08,4.21,11.04,5.43
			c3.96,1.23,8.11,1.84,12.26,1.95c4.16,0.13,8.31-0.4,12.36-1.22c4.05-0.84,7.99-2.01,11.84-3.25c3.85-1.26,7.64-2.56,11.3-4.15
			c3.65-1.59,7.15-3.47,10.48-5.5c1.67-1.02,3.29-2.07,4.83-3.23c0.77-0.58,1.58-1.1,2.38-1.65c0.77-0.58,1.48-1.23,2.25-1.8
			c3.08-2.32,5.82-5.02,8.56-7.78c2.6-2.88,5.13-5.9,7.39-9.19c4.51-6.58,8.25-13.93,11.3-22.02l1.19,0.14
			c0.97,8.82-0.7,17.9-4.13,26.35c-1.74,4.23-4.04,8.25-6.69,12.07c-2.77,3.71-5.84,7.28-9.42,10.28c-0.88,0.77-1.78,1.51-2.69,2.24
			c-0.95,0.67-1.89,1.36-2.86,2c-1.91,1.33-3.9,2.53-5.96,3.57c-4.09,2.13-8.36,3.81-12.69,5.17c-4.33,1.35-8.73,2.42-13.2,2.95
			c-4.47,0.55-8.97,0.6-13.41,0.36c-8.89-0.52-17.48-1.77-26.04-3.53c-4.28-0.89-8.61-1.85-12.94-3.21
			c-4.31-1.37-8.63-3.16-12.49-5.78c-1.89-1.35-3.82-2.7-5.46-4.38c-0.43-0.4-0.85-0.81-1.26-1.23l-0.62-0.62l-0.57-0.67
			c-0.76-0.89-1.48-1.82-2.22-2.73c-2.79-3.77-5.05-7.89-6.68-12.22c-1.62-4.33-2.59-8.84-2.93-13.34
			c-0.33-4.5-0.07-9.03,1.07-13.35L336.53,285.06z"/>
	</g>
	<path class="st3" d="M549.93,554.07c-63.67-47-127.33-94-191-141"/>
	<circle class="st4" cx="562.28" cy="564.46" r="17.49"/>
	<path class="st3" d="M559.93,562.07c12-63.67,24-127.33,36-191"/>
	<path class="st2" d="M543.92,382.13c0.57-7.37,17.45-13.29,31.81-13.56c5.08-0.1,5.69,0.6,11.23,0.94
		c24.83,1.52,34.27-11.05,46.3-6.55c11.07,4.14,18.73,20.63,14.5,28.06c-4.69,8.25-19.88-1.92-56.13,2.34
		c-16.44,1.93-29.18,5.89-40.69-1.87C549.15,390.28,543.58,386.53,543.92,382.13z"/>
	<path class="st3" d="M358.93,413.07c63-3.25,160,20.25,223,17"/>
	<circle class="st2" cx="704.94" cy="565.24" r="13"/>
	<path class="st3" d="M586.93,430.07c39.33,48,78.67,87,118,135"/>
	<path class="st3" d="M533.04,607c5.99-9.67,11.97-19.33,17.96-29"/>
	<path class="st2" d="M551.36,617h-28.73c-4.77,0-8.64-3.87-8.64-8.64v-1.73c0-4.77,3.87-8.64,8.64-8.64h28.73
		c4.77,0,8.64,3.87,8.64,8.64v1.73C560,613.13,556.13,617,551.36,617z"/>
	<path class="st5" d="M559.5,566.5c51.67-7.33,103.83,5.83,155.5-1.5"/>
</g>
</svg>
