<svg id="Layer_1" data-name="Layer 1" xmlns="http://www.w3.org/2000/svg" viewBox="0 0 740 784"><defs><style>.cls-1{fill:#fbddad;}.cls-2{fill:#1a1a1a;}.cls-3{fill:#0a2636;}.cls-4{fill:#fff;}</style></defs><title>girl</title><ellipse class="cls-1" cx="285.5" cy="504" rx="271.5" ry="262"/><ellipse class="cls-1" cx="506.72" cy="228" rx="220.72" ry="213"/><rect class="cls-2" x="463" y="374" width="233" height="57" rx="28.5" transform="translate(74.68 895.43) rotate(-79.1)"/><rect class="cls-2" x="386" y="461" width="197" height="57" rx="16.5"/><path class="cls-3" d="M430.06,291.13c9.05-33,17.59-63.07,34.17-65.66,13.84-2.15,28.95,14.95,29.83,19.72C508,321,530,365,497,441c-18.53,42.68-67.25,13.05-90,46-29.35,42.52-54,108.36-88,141-13.25,12.71,13.91-99.65,49-160.24,23.27-40.17,36.67-54.76,45.67-91.86C420.4,348.21,418.63,332.86,430.06,291.13Z"/><ellipse class="cls-3" cx="437" cy="174.03" rx="42.01" ry="69.02" transform="translate(-8.32 22.54) rotate(-2.93)"/><rect class="cls-2" x="475" y="511.79" width="19.94" height="135.21"/><path class="cls-2" d="M549.84,677H420.63a35.62,35.62,0,0,1,35.62-35.62h58A35.62,35.62,0,0,1,549.84,677Z"/><path class="cls-3" d="M485.1,292.12C467.12,311.57,395.71,385,313,380a129.36,129.36,0,0,1-21.41-3.08"/><path class="cls-3" d="M231.59,599.13c-6.56,7.2,42.78,42.29,74.78,34.84,7.43-1.73,16.95-6.46,16.62-11.83C322,606.58,238.77,591.26,231.59,599.13Z"/><path class="cls-3" d="M449.16,643.35c14.28,8.1-.33-104.24-41.22-159.68-9.49-12.86-24.27-27.92-29.5-24.2C363.27,470.24,433.55,634.49,449.16,643.35Z"/><path class="cls-3" d="M363.71,665.75c-1.5,9.62,59,11.69,81.6-12.17,5.24-5.54,10.58-14.74,7.34-19C443.27,622.1,365.36,655.22,363.71,665.75Z"/><rect class="cls-4" x="135" y="106" width="30" height="246" rx="13.68"/><path class="cls-4" d="M222.22,402v-3.78c0-8.81,4.19-15.38,9.35-14.68l90.5,12.24a11,11,0,0,1,9.34,10.6v2.22a9.34,9.34,0,0,1-9.34,9.34h-90.5C226.41,417.9,222.22,410.77,222.22,402Z"/><rect class="cls-4" x="145.9" y="286" width="9.1" height="103"/><path class="cls-4" d="M140.32,369.32h0A20.39,20.39,0,0,1,160.7,389.7v18.21a20.39,20.39,0,0,1-20.39,20.39h0a0,0,0,0,1,0,0v-59A0,0,0,0,1,140.32,369.32Z" transform="translate(-248.3 549.32) rotate(-90)"/><rect class="cls-4" x="100" y="409" width="231" height="25"/><rect class="cls-4" x="100" y="543" width="231" height="13" transform="translate(-334 765) rotate(-90)"/><path class="cls-4" d="M159,652H273a25,25,0,0,1,25,25v0a0,0,0,0,1,0,0H134a0,0,0,0,1,0,0v0A25,25,0,0,1,159,652Z"/><path class="cls-4" d="M438.87,149c-8.64,0-16.06,6.59-19.28,16a17.21,17.21,0,0,0-20.14.5C396.32,155.83,388.79,149,380,149c-11.6,0-21,11.86-21,26.5a32.92,32.92,0,0,0,.46,5.5h41.08a33.2,33.2,0,0,0-.42-13.1,25.3,25.3,0,0,1,9.32-1.8,25.57,25.57,0,0,1,9.32,1.78,33.08,33.08,0,0,0-.43,13.12h41.09a34,34,0,0,0,.45-5.5C459.87,160.86,450.47,149,438.87,149Z"/><ellipse class="cls-3" cx="456" cy="111" rx="6" ry="9" transform="translate(0.31 223.27) rotate(-27.52)"/><path class="cls-3" d="M456,109c27-18,44.53-16,50.5-10.5,15.15,13.82-7.49,55.52,10,69,10.12,7.8,27,1.06,29,7,2.09,6.37-17.06,15.23-15,26,1,5.13,6.22,7.74,6,8-.5.6-34.92-9.2-49-41C476.05,141.64,475.36,117.8,456,109Z"/></svg>