<?xml version="1.0" encoding="utf-8"?>
<!-- Generator: Adobe Illustrator 23.1.0, SVG Export Plug-In . SVG Version: 6.00 Build 0)  -->
<svg version="1.1" id="Layer_1" xmlns="http://www.w3.org/2000/svg" xmlns:xlink="http://www.w3.org/1999/xlink" x="0px" y="0px"
	 viewBox="0 0 627 444" style="enable-background:new 0 0 627 444;" xml:space="preserve">
<style type="text/css">
	.st0{fill:#FFA500;}
	.st1{fill:#FFFFFF;}
</style>
<g>
	<g>
		<path class="st0" d="M373.02,379.63l1.32-0.1l-2.47,4.27c-8.09-11.82-16.04-23.72-24.07-35.57l-23.82-35.71
			c-7.98-11.88-15.77-23.87-23.66-35.81l-23.6-35.84l-23.39-35.96c-7.78-12-15.64-23.95-23.33-36l-23.16-36.09
			c-7.64-12.08-15.35-24.11-22.92-36.24h38.11c-2.46,6.82-5.24,13.46-8.12,20.05c-2.86,6.59-5.9,13.08-8.98,19.55
			c-6.22,12.9-12.76,25.61-19.63,38.14c-13.7,25.06-28.53,49.48-44.17,73.43c-15.65,23.94-32.15,47.39-49.73,70.22
			c-4.39,5.71-8.86,11.38-13.42,16.98l-6.87,8.4l-7.01,8.32l-7.16,8.23c-2.45,2.71-4.83,5.45-7.33,8.14
			c-4.93,5.4-9.98,10.73-15.31,15.89l-2.7-4.67l1.26,0.36v5.5l-1.26,0.36l-4.18,1.2l1.48-5.87c1.81-7.2,3.9-14.24,6.11-21.2
			c1.08-3.5,2.26-6.94,3.38-10.41l3.55-10.32l3.7-10.23l3.84-10.15c2.57-6.76,5.25-13.46,8-20.12
			c10.98-26.64,23.04-52.65,35.95-78.18c12.92-25.52,26.66-50.56,41.51-74.97c7.41-12.21,15.15-24.23,23.21-36.06
			c4.06-5.9,8.17-11.77,12.44-17.55c4.26-5.78,8.62-11.51,13.3-17.05l23.36-27.68l14.74,27.68c6.72,12.61,13.28,25.31,19.92,37.96
			l19.67,38.11c6.59,12.68,13.01,25.46,19.51,38.2l19.45,38.24l19.24,38.36c6.39,12.8,12.88,25.54,19.18,38.39l19.02,38.49
			c6.25,12.88,12.58,25.71,18.77,38.63l2.22,4.63l-4.68-0.35l-1.32-0.1V379.63z"/>
	</g>
	<g>
		<path class="st0" d="M116.65,235.7c28.78,13.72,58.01,26.57,87.99,37.06c14.98,5.26,30.16,9.91,45.53,13.5
			c15.36,3.59,30.95,6.11,46.53,6.74c7.79,0.33,15.56,0.15,23.24-0.65c3.84-0.35,7.65-0.95,11.44-1.61
			c3.77-0.73,7.52-1.56,11.2-2.61c14.76-4.12,28.57-11.07,40.99-20.12c12.44-9.04,23.6-19.94,33.96-31.65
			c5.18-5.86,10.17-11.92,15.04-18.11l3.63-4.67l1.8-2.35l0.9-1.17l0.79-1.07c2.07-2.9,3.99-6.08,5.77-9.39
			c3.57-6.63,6.66-13.74,9.5-20.97c2.84-7.24,5.43-14.65,7.87-22.13c4.87-14.96,9.17-30.21,13.25-45.54
			c4.09-15.34,7.92-30.79,11.86-46.3c1.98-7.76,3.97-15.53,6.17-23.38c1.11-3.93,2.26-7.87,3.64-11.94c0.7-2.05,1.45-4.1,2.45-6.37
			c0.52-1.15,1.07-2.33,2-3.84c0.5-0.77,1.03-1.6,2.15-2.79c0.59-0.59,1.34-1.32,2.71-2.12c0.7-0.4,1.56-0.81,2.73-1.12
			c1-0.32,2.91-0.42,3.65-0.31c1.93,0.16,3.45,0.79,4.45,1.32c1.03,0.55,1.79,1.11,2.35,1.59c1.15,0.98,1.83,1.78,2.41,2.51
			c1.13,1.44,1.84,2.63,2.5,3.77c1.27,2.26,2.22,4.32,3.1,6.36c1.74,4.06,3.16,8,4.51,11.94c2.66,7.86,4.94,15.68,7.09,23.52
			c4.27,15.66,7.95,31.36,11.34,47.12c6.75,31.51,12.28,63.23,16.62,95.2c2.17,15.99,3.95,32.06,5.35,48.22
			c1.37,16.17,2.28,32.45,2.22,48.98c-0.04,8.27-0.32,16.6-1.1,25.07c-0.8,8.48-1.98,17.07-4.51,26.06
			c-1.29,4.5-2.92,9.12-5.49,13.91c-1.29,2.39-2.85,4.84-4.84,7.25c-1.99,2.41-4.46,4.8-7.54,6.83c-1.53,1.01-3.21,1.91-4.99,2.65
			c-0.89,0.37-1.8,0.69-2.72,0.98l-0.69,0.2l-0.62,0.17l-0.91,0.22c-1.21,0.29-2.43,0.59-3.65,0.8c-1.22,0.24-2.44,0.45-3.66,0.61
			c-4.89,0.69-9.78,0.89-14.56,0.69c-9.59-0.39-18.71-2.32-27.29-5.01c-8.59-2.74-16.66-6.27-24.36-10.24
			c-15.37-8.01-29.24-17.75-42.2-28.37c-6.47-5.34-12.71-10.89-18.74-16.72c-3.01-2.93-5.97-5.91-8.91-9.08l-2.23-2.44
			c-0.75-0.84-1.5-1.7-2.35-2.72c-0.41-0.49-0.91-1.1-1.6-2.06l-0.86-1.23l-1.73-2.46c-9.16-13.15-18.3-26.37-27.13-39.96
			c-4.42-6.8-8.78-13.68-13.01-20.74c-4.23-7.08-8.29-14.33-12.02-22.18c-1.86-3.94-3.63-8.03-5.15-12.64
			c-0.76-2.32-1.45-4.77-1.97-7.57c-0.25-1.42-0.47-2.9-0.56-4.59c-0.1-1.65-0.09-3.5,0.21-5.62c0.31-2.1,0.91-4.51,2.21-7.03
			c1.28-2.51,3.38-4.99,5.72-6.68c2.34-1.72,4.75-2.7,6.86-3.29c2.15-0.6,4-0.8,5.71-0.9c3.39-0.15,6.17,0.19,8.74,0.63
			c2.56,0.45,4.89,1.04,7.13,1.69c4.48,1.29,8.54,2.84,12.53,4.46c3.96,1.64,7.79,3.37,11.53,5.18c7.49,3.62,14.71,7.48,21.82,11.46
			c14.21,7.93,27.91,16.44,41.5,25.05c27.08,17.36,53.44,35.56,79.47,54.2c13,9.33,25.93,18.75,38.74,28.35l19.18,14.42
			c6.35,4.87,12.71,9.71,19.01,14.64l-1.63,2.4l-20.63-12.23l-20.57-12.3l-41.13-24.51c-27.43-16.27-54.9-32.45-82.65-47.82
			c-13.85-7.71-27.82-15.15-41.85-22.1c-7.02-3.46-14.07-6.77-21.12-9.74c-7.01-2.95-14.14-5.7-20.68-7.29
			c-1.61-0.39-3.18-0.7-4.56-0.87c-1.37-0.18-2.59-0.19-3.19-0.11c-0.09,0-0.15,0.02-0.18,0.03c-0.04,0.01-0.1,0.02-0.11,0.02
			c0,0.03-0.03,0.02,0.11,0.01c0.2-0.04,0.75-0.2,1.49-0.73c0.74-0.5,1.51-1.42,1.89-2.14c0.4-0.74,0.49-1.2,0.53-1.32
			c0.03-0.14,0.02,0.01,0.07,0.35c0.03,0.3,0.13,0.81,0.24,1.34c0.26,1.12,0.69,2.5,1.23,3.96c1.09,2.93,2.59,6.14,4.26,9.36
			c3.35,6.46,7.37,13,11.5,19.51c4.16,6.51,8.53,13,13.01,19.46c8.98,12.91,18.26,25.77,27.62,38.62l1.75,2.42l0.88,1.21
			c-0.1-0.15,0.02,0.02,0.26,0.29c0.43,0.5,1,1.14,1.59,1.78l1.84,1.95c2.54,2.64,5.24,5.29,7.99,7.88
			c5.5,5.2,11.22,10.24,17.11,15.01c5.88,4.79,11.91,9.36,18.09,13.57c6.18,4.23,12.5,8.15,18.95,11.57
			c6.44,3.44,13.01,6.39,19.6,8.62c6.58,2.25,13.2,3.74,19.57,4.15c3.19,0.21,6.31,0.14,9.33-0.21c0.76-0.07,1.51-0.19,2.25-0.32
			c0.75-0.1,1.48-0.27,2.21-0.43l0.55-0.11l0.1-0.02l0.03,0c0.03,0,0.07-0.01,0.1-0.01c0.07-0.01,0.17-0.04,0.31-0.12
			c0.55-0.23,1.95-1.54,3.23-3.76c1.3-2.19,2.51-5.09,3.51-8.22c2.02-6.32,3.34-13.57,4.26-20.95c0.92-7.41,1.44-15.03,1.72-22.72
			c0.55-15.4,0.15-31.05-0.7-46.72c-0.86-15.68-2.31-31.39-4.04-47.08c-3.52-31.39-8.37-62.73-14.33-93.79
			c-3-15.52-6.3-30.99-10.11-46.22c-1.91-7.6-3.95-15.16-6.26-22.47c-1.15-3.64-2.38-7.24-3.72-10.54
			c-0.66-1.63-1.37-3.22-2.03-4.44c-0.32-0.59-0.65-1.12-0.75-1.25c-0.03-0.06-0.02-0.01,0.37,0.33c0.19,0.15,0.53,0.43,1.12,0.74
			c0.56,0.29,1.6,0.75,3.03,0.87c0.5,0.07,2.16,0,2.91-0.25c0.93-0.25,1.56-0.56,2.04-0.83c0.94-0.55,1.3-0.95,1.54-1.19
			c0.43-0.47,0.38-0.48,0.34-0.41c-0.14,0.19-0.47,0.8-0.78,1.46c-0.64,1.36-1.3,3.05-1.94,4.76c-1.27,3.46-2.47,7.16-3.62,10.88
			c-2.3,7.46-4.47,15.11-6.63,22.76c-4.31,15.33-8.56,30.77-13.09,46.17c-4.53,15.4-9.28,30.79-14.69,46.06
			c-2.71,7.63-5.58,15.23-8.76,22.77c-3.19,7.54-6.66,15.02-10.84,22.35c-2.1,3.66-4.38,7.28-7.06,10.8l-1.02,1.31l-0.96,1.18
			l-1.91,2.35l-3.85,4.68c-5.18,6.21-10.52,12.33-16.08,18.28c-11.12,11.88-23.25,23.11-36.93,32.47
			c-13.65,9.37-29.01,16.57-45.15,20.58c-4.03,1.03-8.1,1.8-12.19,2.48c-4.09,0.6-8.2,1.12-12.31,1.38
			c-8.23,0.6-16.45,0.52-24.6-0.07c-16.31-1.18-32.29-4.3-47.89-8.45c-15.6-4.16-30.84-9.36-45.81-15.15
			c-29.92-11.65-58.79-25.55-87.14-40.29L116.65,235.7z"/>
	</g>
</g>
<g>
	<g>
		<path class="st1" d="M376.72,382.58l1.32-0.1l-2.47,4.27c-8.09-11.82-16.04-23.72-24.07-35.57l-23.82-35.71
			c-7.98-11.88-15.77-23.87-23.66-35.81l-23.6-35.84l-23.39-35.96c-7.78-12-15.64-23.95-23.33-36l-23.16-36.09
			c-7.64-12.08-15.35-24.11-22.92-36.24h38.11c-2.46,6.82-5.24,13.46-8.12,20.05c-2.86,6.59-5.9,13.08-8.98,19.55
			c-6.22,12.9-12.76,25.61-19.63,38.14c-13.7,25.06-28.53,49.48-44.17,73.43c-15.65,23.94-32.15,47.39-49.73,70.22
			c-4.39,5.71-8.86,11.38-13.42,16.98l-6.87,8.4l-7.01,8.32l-7.16,8.23c-2.45,2.71-4.83,5.45-7.33,8.14
			c-4.93,5.4-9.98,10.73-15.31,15.89l-2.7-4.67l1.26,0.36v5.5l-1.26,0.36l-4.18,1.2l1.48-5.87c1.81-7.2,3.9-14.24,6.11-21.2
			c1.08-3.5,2.26-6.94,3.38-10.41l3.55-10.32l3.7-10.23l3.84-10.15c2.57-6.76,5.25-13.46,8-20.12
			c10.98-26.64,23.04-52.65,35.95-78.18c12.92-25.52,26.66-50.56,41.51-74.97c7.41-12.21,15.15-24.23,23.21-36.06
			c4.06-5.9,8.17-11.77,12.44-17.55c4.26-5.78,8.62-11.51,13.3-17.05l23.36-27.68l14.74,27.68c6.72,12.61,13.28,25.31,19.92,37.96
			l19.67,38.11c6.59,12.68,13.01,25.46,19.51,38.2l19.45,38.24l19.24,38.36c6.39,12.8,12.88,25.54,19.18,38.39l19.02,38.49
			c6.25,12.88,12.58,25.71,18.77,38.63l2.22,4.63l-4.68-0.35l-1.32-0.1V382.58z"/>
	</g>
	<g>
		<path class="st1" d="M120.35,238.65c28.78,13.72,58.01,26.57,87.99,37.06c14.98,5.26,30.16,9.91,45.53,13.5
			c15.36,3.59,30.95,6.11,46.53,6.74c7.79,0.33,15.56,0.15,23.24-0.65c3.84-0.35,7.65-0.95,11.44-1.61
			c3.77-0.73,7.52-1.56,11.2-2.61c14.76-4.12,28.57-11.07,40.99-20.12c12.44-9.04,23.6-19.94,33.96-31.65
			c5.18-5.86,10.17-11.92,15.04-18.11l3.63-4.67l1.8-2.35l0.9-1.17l0.79-1.07c2.07-2.9,3.99-6.08,5.77-9.39
			c3.57-6.63,6.66-13.74,9.5-20.97c2.84-7.24,5.43-14.65,7.87-22.13c4.87-14.96,9.17-30.21,13.25-45.54
			c4.09-15.34,7.92-30.79,11.86-46.3c1.98-7.76,3.97-15.53,6.17-23.38c1.11-3.93,2.26-7.87,3.64-11.94c0.7-2.05,1.45-4.1,2.45-6.37
			c0.52-1.15,1.07-2.33,2-3.84c0.5-0.77,1.03-1.6,2.15-2.79c0.59-0.59,1.34-1.32,2.71-2.12c0.7-0.4,1.56-0.81,2.73-1.12
			c1-0.32,2.91-0.42,3.65-0.31c1.93,0.16,3.45,0.79,4.45,1.32c1.03,0.55,1.79,1.11,2.35,1.59c1.15,0.98,1.83,1.78,2.41,2.51
			c1.13,1.44,1.84,2.63,2.5,3.77c1.27,2.26,2.22,4.32,3.1,6.36c1.74,4.06,3.16,8,4.51,11.94c2.66,7.86,4.94,15.68,7.09,23.52
			c4.27,15.66,7.95,31.36,11.34,47.12c6.75,31.51,12.28,63.23,16.62,95.2c2.17,15.99,3.95,32.06,5.35,48.22
			c1.37,16.17,2.28,32.45,2.22,48.98c-0.04,8.27-0.32,16.6-1.1,25.07c-0.8,8.48-1.98,17.07-4.51,26.06
			c-1.29,4.5-2.92,9.12-5.49,13.91c-1.29,2.39-2.85,4.84-4.84,7.25c-1.99,2.41-4.46,4.8-7.54,6.83c-1.53,1.01-3.21,1.91-4.99,2.65
			c-0.89,0.37-1.8,0.69-2.72,0.98l-0.69,0.2l-0.62,0.17l-0.91,0.22c-1.21,0.29-2.43,0.59-3.65,0.8c-1.22,0.24-2.44,0.45-3.66,0.61
			c-4.89,0.69-9.78,0.89-14.56,0.69c-9.59-0.39-18.71-2.32-27.29-5.01c-8.59-2.74-16.66-6.27-24.36-10.24
			c-15.37-8.01-29.24-17.75-42.2-28.37c-6.47-5.34-12.71-10.89-18.74-16.72c-3.01-2.93-5.97-5.91-8.91-9.08l-2.23-2.44
			c-0.75-0.84-1.5-1.7-2.35-2.72c-0.41-0.49-0.91-1.1-1.6-2.06l-0.86-1.23l-1.73-2.46c-9.16-13.15-18.3-26.37-27.13-39.96
			c-4.42-6.8-8.78-13.68-13.01-20.74c-4.23-7.08-8.29-14.33-12.02-22.18c-1.86-3.94-3.63-8.03-5.15-12.64
			c-0.76-2.32-1.45-4.77-1.97-7.57c-0.25-1.42-0.47-2.9-0.56-4.59c-0.1-1.65-0.09-3.5,0.21-5.62c0.31-2.1,0.91-4.51,2.21-7.03
			c1.28-2.51,3.38-4.99,5.72-6.68c2.34-1.72,4.75-2.7,6.86-3.29c2.15-0.6,4-0.8,5.71-0.9c3.39-0.15,6.17,0.19,8.74,0.63
			c2.56,0.45,4.89,1.04,7.13,1.69c4.48,1.29,8.54,2.84,12.53,4.46c3.96,1.64,7.79,3.37,11.53,5.18c7.49,3.62,14.71,7.48,21.82,11.46
			c14.21,7.93,27.91,16.44,41.5,25.05c27.08,17.36,53.44,35.56,79.47,54.2c13,9.33,25.93,18.75,38.74,28.35l19.18,14.42
			c6.35,4.87,12.71,9.71,19.01,14.64l-1.63,2.4l-20.63-12.23l-20.57-12.3l-41.13-24.51c-27.43-16.27-54.9-32.45-82.65-47.82
			c-13.85-7.71-27.82-15.15-41.85-22.1c-7.02-3.46-14.07-6.77-21.12-9.74c-7.01-2.95-14.14-5.7-20.68-7.29
			c-1.61-0.39-3.18-0.7-4.56-0.87c-1.37-0.18-2.59-0.19-3.19-0.11c-0.09,0-0.15,0.02-0.18,0.03c-0.04,0.01-0.1,0.02-0.11,0.02
			c0,0.03-0.03,0.02,0.11,0.01c0.2-0.04,0.75-0.2,1.49-0.73c0.74-0.5,1.51-1.42,1.89-2.14c0.4-0.74,0.49-1.2,0.53-1.32
			c0.03-0.14,0.02,0.01,0.07,0.35c0.03,0.3,0.13,0.81,0.24,1.34c0.26,1.12,0.69,2.5,1.23,3.96c1.09,2.93,2.59,6.14,4.26,9.36
			c3.35,6.46,7.37,13,11.5,19.51c4.16,6.51,8.53,13,13.01,19.46c8.98,12.91,18.26,25.77,27.62,38.62l1.75,2.42l0.88,1.21
			c-0.1-0.15,0.02,0.02,0.26,0.29c0.43,0.5,1,1.14,1.59,1.78l1.84,1.95c2.54,2.64,5.24,5.29,7.99,7.88
			c5.5,5.2,11.22,10.24,17.1,15.01c5.88,4.79,11.91,9.36,18.09,13.57c6.18,4.23,12.5,8.15,18.95,11.57
			c6.44,3.44,13.01,6.39,19.6,8.62c6.58,2.25,13.2,3.74,19.57,4.15c3.19,0.21,6.31,0.14,9.33-0.21c0.76-0.07,1.51-0.19,2.25-0.32
			c0.75-0.1,1.48-0.27,2.21-0.43l0.55-0.11l0.1-0.02l0.03,0c0.03,0,0.07-0.01,0.1-0.01c0.07-0.01,0.17-0.04,0.31-0.12
			c0.55-0.23,1.95-1.54,3.23-3.76c1.3-2.19,2.51-5.09,3.51-8.22c2.02-6.32,3.34-13.57,4.26-20.95c0.92-7.41,1.44-15.03,1.72-22.72
			c0.55-15.4,0.15-31.05-0.7-46.72c-0.86-15.68-2.31-31.39-4.04-47.08c-3.52-31.39-8.37-62.73-14.33-93.79
			c-3-15.52-6.3-30.99-10.11-46.22c-1.91-7.6-3.95-15.16-6.26-22.47c-1.15-3.64-2.38-7.24-3.72-10.54
			c-0.66-1.63-1.37-3.22-2.03-4.44c-0.32-0.59-0.65-1.12-0.75-1.25c-0.03-0.06-0.02-0.01,0.37,0.33c0.19,0.15,0.53,0.43,1.12,0.74
			c0.56,0.29,1.6,0.75,3.03,0.87c0.5,0.07,2.16,0,2.91-0.25c0.93-0.25,1.56-0.56,2.04-0.83c0.94-0.55,1.3-0.95,1.54-1.19
			c0.43-0.47,0.38-0.48,0.34-0.41c-0.14,0.19-0.47,0.8-0.78,1.46c-0.64,1.36-1.3,3.05-1.94,4.76c-1.27,3.46-2.47,7.16-3.62,10.88
			c-2.3,7.46-4.47,15.11-6.63,22.76c-4.31,15.33-8.56,30.77-13.09,46.17c-4.53,15.4-9.28,30.79-14.69,46.06
			c-2.71,7.63-5.58,15.23-8.76,22.77c-3.19,7.54-6.66,15.02-10.84,22.35c-2.1,3.66-4.38,7.28-7.06,10.8l-1.02,1.31l-0.96,1.18
			l-1.91,2.35l-3.85,4.68c-5.18,6.21-10.52,12.33-16.08,18.28c-11.12,11.88-23.25,23.11-36.93,32.47
			c-13.65,9.37-29.01,16.57-45.15,20.58c-4.03,1.03-8.1,1.8-12.19,2.48c-4.09,0.6-8.2,1.12-12.31,1.38
			c-8.23,0.6-16.45,0.52-24.6-0.07c-16.31-1.18-32.29-4.3-47.89-8.45c-15.6-4.16-30.84-9.36-45.81-15.15
			c-29.92-11.65-58.79-25.55-87.14-40.29L120.35,238.65z"/>
	</g>
</g>
</svg>
