<?xml version="1.0" encoding="utf-8"?>
<!-- Generator: Adobe Illustrator 23.1.0, SVG Export Plug-In . SVG Version: 6.00 Build 0)  -->
<svg version="1.1" id="Layer_1" xmlns="http://www.w3.org/2000/svg" xmlns:xlink="http://www.w3.org/1999/xlink" x="0px" y="0px"
	 viewBox="0 0 1758 190" style="enable-background:new 0 0 1758 190;" xml:space="preserve">
<style type="text/css">
	.st0{fill:#FFFFFF;}
	.st1{fill:#0A2636;}
	.st2{fill:#FFDA9F;}
</style>
<g>
	<path class="st0" d="M20.07,269.5c-19.9,0-30.22-14.15-33.02-26.28s0.3-29.37,18.19-38.07L231.91,94.88
		c4.59-2.23,9.72-3.41,14.82-3.41c5.11,0,10.23,1.18,14.82,3.41l226.67,110.27c17.9,8.71,20.99,25.95,18.19,38.07
		S493.3,269.5,473.4,269.5H20.07z"/>
	<path class="st1" d="M246.74,92.96c4.88,0,9.78,1.13,14.17,3.26L487.57,206.5c17.1,8.32,20.06,24.8,17.39,36.39
		C502.29,254.47,492.42,268,473.4,268H20.07c-19.02,0-28.89-13.53-31.55-25.11c-2.67-11.58,0.28-28.06,17.39-36.39L232.57,96.23
		C236.96,94.09,241.86,92.96,246.74,92.96 M246.74,89.96c-5.3,0-10.59,1.19-15.48,3.57L4.59,203.8
		C-29.17,220.23-17.47,271,20.07,271H473.4c37.54,0,49.24-50.77,15.48-67.2L262.21,93.53C257.33,91.15,252.03,89.96,246.74,89.96
		L246.74,89.96z"/>
</g>
<g>
	<path class="st0" d="M998.92,279.5c-15.9,0-29.23-9.26-34.78-24.16c-5.55-14.9-1.52-30.62,10.5-41.02l207.58-179.5
		c6.74-5.83,15.36-9.04,24.27-9.04c8.91,0,17.53,3.21,24.27,9.04l207.58,179.5c12.03,10.4,16.05,26.12,10.5,41.02
		c-5.55,14.9-18.88,24.16-34.78,24.16H998.92z"/>
	<path class="st1" d="M1206.51,27.28c8.55,0,16.82,3.08,23.29,8.67l207.58,179.5c13.8,11.93,14.25,28.16,10.08,39.36
		c-4.17,11.21-15.13,23.18-33.37,23.18H998.92c-18.24,0-29.2-11.98-33.37-23.18c-4.17-11.21-3.72-27.43,10.08-39.36l207.58-179.5
		C1189.68,30.36,1197.95,27.28,1206.51,27.28 M1206.51,24.28c-9,0-18,3.13-25.25,9.4l-207.58,179.5
		C946.62,236.58,963.16,281,998.92,281h415.17c35.76,0,52.31-44.42,25.25-67.82l-207.58-179.5
		C1224.51,27.42,1215.51,24.28,1206.51,24.28L1206.51,24.28z"/>
</g>
<g>
	<path class="st0" d="M-84.22,205.5c-8.81,0-14.1-5.78-16.11-11.19c-2.02-5.41-1.79-13.25,4.87-19.01L5.04,88.39
		c3.12-2.7,7.12-4.19,11.25-4.19s8.12,1.49,11.25,4.19l100.51,86.91c6.66,5.76,6.88,13.6,4.87,19.01
		c-2.02,5.41-7.31,11.19-16.11,11.19H-84.22z"/>
	<path class="st1" d="M16.29,85.7c3.77,0,7.41,1.36,10.27,3.82l100.51,86.91c6.08,5.26,6.28,12.41,4.44,17.35
		c-1.84,4.94-6.67,10.22-14.71,10.22H-84.22c-8.04,0-12.87-5.28-14.71-10.22c-1.84-4.94-1.64-12.09,4.44-17.35L6.02,89.52
		C8.87,87.06,12.52,85.7,16.29,85.7 M16.29,82.7c-4.36,0-8.72,1.52-12.23,4.55l-100.51,86.91c-13.1,11.33-5.09,32.84,12.23,32.84
		H116.8c17.32,0,25.33-21.51,12.23-32.84L28.52,87.25C25.01,84.22,20.65,82.7,16.29,82.7L16.29,82.7z"/>
</g>
<g>
	<path class="st0" d="M576.33,213.5c-8.81,0-14.1-5.78-16.11-11.19c-2.02-5.41-1.79-13.25,4.87-19.01L665.6,96.39
		c3.12-2.7,7.12-4.19,11.25-4.19c4.13,0,8.12,1.49,11.25,4.19L788.6,183.3c6.66,5.76,6.88,13.6,4.87,19.01
		c-2.02,5.41-7.31,11.19-16.11,11.19H576.33z"/>
	<path class="st1" d="M676.84,93.7c3.77,0,7.41,1.36,10.27,3.82l100.51,86.91c6.08,5.26,6.28,12.41,4.44,17.35
		c-1.84,4.94-6.67,10.22-14.71,10.22H576.33c-8.04,0-12.87-5.28-14.71-10.22c-1.84-4.94-1.64-12.09,4.44-17.35l100.51-86.91
		C669.43,95.06,673.07,93.7,676.84,93.7 M676.84,90.7c-4.36,0-8.72,1.52-12.23,4.55L564.1,182.16
		c-13.1,11.33-5.09,32.84,12.23,32.84h201.02c17.32,0,25.33-21.51,12.23-32.84L689.07,95.25C685.56,92.22,681.2,90.7,676.84,90.7
		L676.84,90.7z"/>
</g>
<g>
	<path class="st0" d="M1280.57,306.5c-28.12,0-44.53-20.08-48.32-39.98c-3.79-19.9,4.08-44.61,30.23-54.95l338.27-133.79
		c5.79-2.29,11.87-3.45,18.09-3.45c6.22,0,12.31,1.16,18.09,3.45l338.27,133.79c26.15,10.34,34.02,35.05,30.23,54.96
		c-3.79,19.9-20.21,39.98-48.32,39.98H1280.57z"/>
	<path class="st1" d="M1618.84,75.82c6.03,0,11.93,1.12,17.54,3.34l338.27,133.79c11.47,4.54,20.22,12.32,25.31,22.51
		c4.6,9.22,6.02,20.15,4,30.76c-2.02,10.62-7.36,20.26-15.03,27.14c-8.48,7.61-19.48,11.63-31.82,11.63h-676.54
		c-12.34,0-23.34-4.02-31.82-11.63c-7.67-6.88-13.01-16.52-15.03-27.14s-0.6-21.54,4-30.76c5.09-10.19,13.84-17.98,25.31-22.51
		L1601.3,79.16C1606.91,76.95,1612.81,75.82,1618.84,75.82 M1618.84,72.82c-6.33,0-12.66,1.18-18.64,3.55l-338.27,133.79
		c-52.01,20.57-37.28,97.83,18.64,97.83h676.54c55.93,0,70.65-77.26,18.64-97.83L1637.49,76.37
		C1631.5,74.01,1625.17,72.82,1618.84,72.82L1618.84,72.82z"/>
</g>
<path class="st2" d="M1191.78,36.53L1161,63.15c-0.49,9.38,0.5,18.2,4.38,19.53c6.61,2.26,16.47-18.98,25.16-16.56
	c7.41,2.06,6.71,19.27,11.92,19.87c4.05,0.46,3.76-14.86,11.92-18.54c10.7-4.82,25.03,14.63,31.79,10.6
	c3.51-2.09,3.57-9.69,1.83-18.24l-26.91-23.27C1212.67,29.26,1200.2,29.26,1191.78,36.53z"/>
<g>
	<path class="st0" d="M257.49,274.5c-19.9,0-30.22-14.15-33.02-26.28s0.3-29.37,18.19-38.07L469.34,99.88
		c4.59-2.23,9.72-3.41,14.82-3.41c5.11,0,10.23,1.18,14.82,3.41l226.67,110.27c17.9,8.71,20.99,25.95,18.19,38.07
		c-2.79,12.12-13.11,26.28-33.02,26.28H257.49z"/>
	<path class="st1" d="M484.16,97.96c4.88,0,9.78,1.13,14.17,3.26L724.99,211.5c17.1,8.32,20.06,24.8,17.39,36.39
		c-2.67,11.58-12.53,25.11-31.55,25.11H257.49c-19.02,0-28.89-13.53-31.55-25.11c-2.67-11.58,0.28-28.06,17.39-36.39l226.67-110.27
		C474.38,99.09,479.28,97.96,484.16,97.96 M484.16,94.96c-5.3,0-10.59,1.19-15.48,3.57L242.01,208.8
		c-33.76,16.42-22.06,67.2,15.48,67.2h453.33c37.54,0,49.24-50.77,15.48-67.2L499.64,98.53C494.75,96.15,489.45,94.96,484.16,94.96
		L484.16,94.96z"/>
</g>
<g>
	<path class="st0" d="M1103.72,349.5c-29.18,0-44.34-20.74-48.47-38.51s0.36-43.07,26.55-55.92l327.73-160.8
		c6.78-3.33,14.36-5.09,21.92-5.09s15.13,1.76,21.92,5.09l327.73,160.8c26.19,12.85,30.67,38.16,26.55,55.92
		s-19.29,38.51-48.47,38.51H1103.72z"/>
	<path class="st1" d="M1431.45,90.69c7.33,0,14.68,1.71,21.26,4.93l327.73,160.8c10.78,5.29,18.82,13.51,23.24,23.78
		c4.01,9.32,4.91,20.14,2.51,30.45c-2.39,10.31-7.96,19.63-15.67,26.23c-8.49,7.27-19.33,11.11-31.34,11.11h-655.45
		c-12.01,0-22.84-3.84-31.34-11.11c-7.71-6.6-13.27-15.92-15.67-26.23c-2.39-10.31-1.5-21.13,2.51-30.45
		c4.42-10.27,12.46-18.49,23.24-23.78l327.73-160.8C1416.77,92.39,1424.12,90.69,1431.45,90.69 M1431.45,87.69
		c-7.73,0-15.46,1.75-22.58,5.24l-327.73,160.8c-48.74,23.92-31.72,97.27,22.58,97.27h655.45c54.3,0,71.32-73.35,22.58-97.27
		l-327.73-160.8C1446.9,89.44,1439.18,87.69,1431.45,87.69L1431.45,87.69z"/>
</g>
<g>
	<path class="st0" d="M716.12,277.5c-13.33,0-24.5-7.76-29.15-20.25s-1.28-25.67,8.81-34.39l175.32-151.6
		c5.65-4.89,12.88-7.58,20.35-7.58s14.7,2.69,20.35,7.58l175.32,151.6c10.08,8.72,13.46,21.9,8.81,34.39s-15.82,20.25-29.15,20.25
		H716.12z"/>
	<path class="st1" d="M891.44,65.18c7.11,0,13.99,2.56,19.37,7.21l175.32,151.6c11.47,9.92,11.85,23.41,8.38,32.73
		S1081.93,276,1066.76,276H716.12c-15.17,0-24.28-9.96-27.75-19.28c-3.47-9.32-3.09-22.81,8.38-32.73l175.32-151.6
		C877.45,67.74,884.33,65.18,891.44,65.18 M891.44,62.18c-7.6,0-15.21,2.65-21.33,7.94l-175.32,151.6
		c-22.85,19.76-8.88,57.28,21.33,57.28h350.64c30.2,0,44.18-37.52,21.33-57.28L912.77,70.12C906.65,64.83,899.04,62.18,891.44,62.18
		L891.44,62.18z"/>
</g>
<g>
	<rect x="-172" y="180" class="st0" width="2050" height="721"/>
</g>
<path class="st2" d="M475.92,105.29l-48.7,23.9c-4.31,8.08-4.76,11.26-3.67,12.18c4.05,3.46,30.75-23.33,36.79-18.4
	c3.8,3.1-3.22,16.59,0,18.4c3.21,1.8,10.07-11.64,19.39-10.94c8.63,0.65,12.72,12.95,17.4,11.44c3.61-1.17,1.58-8.61,5.97-11.93
	c7.42-5.62,21.89,9.08,28.34,4.97c2.48-1.58,3.8-5.96,3.84-11.51l-36.9-18.11C491.29,101.82,483,101.82,475.92,105.29z"/>
<g>
	<rect x="549.09" y="160.99" class="st0" width="137.91" height="48.5"/>
</g>
<g>
	<rect x="1180.66" y="146.26" class="st0" width="137.91" height="48.5"/>
</g>
</svg>
